<svg width="19" height="19" viewBox="0 0 19 19" fill="none" xmlns="http://www.w3.org/2000/svg">
<path fill-rule="evenodd" clip-rule="evenodd" d="M8.44778 5.85616C8.15171 5.56009 7.67167 5.56008 7.3756 5.85616C7.07975 6.15201 7.07949 6.63159 7.37501 6.92776L10.3209 9.88007L7.37501 12.8324C7.07949 13.1285 7.07975 13.6081 7.3756 13.904C7.67167 14.2001 8.1517 14.2001 8.44778 13.904L12.4717 9.88007L8.44778 5.85616Z" fill="black" fill-opacity="0.7"/>
<mask id="mask0_194_17" style="mask-type:luminance" maskUnits="userSpaceOnUse" x="7" y="5" width="6" height="10">
<path fill-rule="evenodd" clip-rule="evenodd" d="M8.44778 5.85616C8.15171 5.56009 7.67167 5.56008 7.3756 5.85616C7.07975 6.15201 7.07949 6.63159 7.37501 6.92776L10.3209 9.88007L7.37501 12.8324C7.07949 13.1285 7.07975 13.6081 7.3756 13.904C7.67167 14.2001 8.1517 14.2001 8.44778 13.904L12.4717 9.88007L8.44778 5.85616Z" fill="white"/>
</mask>
<g mask="url(#mask0_194_17)">
<rect x="0.76001" y="0.76001" width="18.24" height="18.24" fill="#60815D"/>
</g>
</svg>
