<svg width="204" height="50" viewBox="0 0 204 50" fill="none" xmlns="http://www.w3.org/2000/svg">
<path d="M68.2505 19.0156C68.1312 17.8991 67.6284 17.0298 66.742 16.4077C65.8642 15.7855 64.7221 15.4744 63.3159 15.4744C62.3272 15.4744 61.4792 15.6236 60.7718 15.9219C60.0645 16.2202 59.5233 16.625 59.1483 17.1364C58.7733 17.6477 58.5815 18.2315 58.573 18.8878C58.573 19.4332 58.6966 19.9062 58.9437 20.3068C59.1994 20.7074 59.5446 21.0483 59.9792 21.3295C60.4139 21.6023 60.8954 21.8324 61.4238 22.0199C61.9522 22.2074 62.4849 22.3651 63.0218 22.4929L65.4764 23.1065C66.465 23.3366 67.4153 23.6477 68.3272 24.0398C69.2477 24.4318 70.0701 24.9261 70.7946 25.5227C71.5275 26.1193 72.1071 26.8395 72.5332 27.6832C72.9593 28.527 73.1724 29.5156 73.1724 30.6491C73.1724 32.1832 72.7804 33.5341 71.9963 34.7017C71.2122 35.8608 70.0787 36.7685 68.5957 37.4247C67.1213 38.0724 65.3358 38.3963 63.2392 38.3963C61.2022 38.3963 59.4338 38.081 57.9338 37.4503C56.4423 36.8196 55.2747 35.8991 54.4309 34.6889C53.5957 33.4787 53.144 32.0043 53.0758 30.2656H57.742C57.8102 31.1776 58.0914 31.9361 58.5858 32.5412C59.0801 33.1463 59.7235 33.598 60.5162 33.8963C61.3173 34.1946 62.2122 34.3438 63.2008 34.3438C64.2321 34.3438 65.1355 34.1903 65.911 33.8835C66.6951 33.5682 67.3088 33.1335 67.752 32.5795C68.1951 32.017 68.421 31.3608 68.4295 30.6108C68.421 29.929 68.2207 29.3665 67.8287 28.9233C67.4366 28.4716 66.8869 28.0966 66.1795 27.7983C65.4806 27.4915 64.6625 27.2187 63.725 26.9801L60.7463 26.2131C58.59 25.6591 56.8855 24.8196 55.6326 23.6946C54.3883 22.5611 53.7662 21.0568 53.7662 19.1818C53.7662 17.6392 54.1838 16.2884 55.019 15.1293C55.8627 13.9702 57.0091 13.071 58.4579 12.4318C59.9068 11.7841 61.5474 11.4602 63.3798 11.4602C65.2377 11.4602 66.8656 11.7841 68.2633 12.4318C69.6696 13.071 70.7733 13.9616 71.5744 15.1037C72.3755 16.2372 72.7889 17.5412 72.8145 19.0156H68.2505ZM85.7615 38.3835C83.8439 38.3835 82.182 37.9616 80.7757 37.1179C79.3695 36.2741 78.2786 35.0937 77.503 33.5767C76.736 32.0597 76.3525 30.2869 76.3525 28.2585C76.3525 26.2301 76.736 24.4531 77.503 22.9276C78.2786 21.402 79.3695 20.2173 80.7757 19.3736C82.182 18.5298 83.8439 18.108 85.7615 18.108C87.6792 18.108 89.3411 18.5298 90.7473 19.3736C92.1536 20.2173 93.2402 21.402 94.0073 22.9276C94.7828 24.4531 95.1706 26.2301 95.1706 28.2585C95.1706 30.2869 94.7828 32.0597 94.0073 33.5767C93.2402 35.0937 92.1536 36.2741 90.7473 37.1179C89.3411 37.9616 87.6792 38.3835 85.7615 38.3835ZM85.7871 34.6761C86.8269 34.6761 87.6962 34.3906 88.3951 33.8196C89.0939 33.2401 89.6138 32.4645 89.9547 31.4929C90.3042 30.5213 90.4789 29.4389 90.4789 28.2457C90.4789 27.044 90.3042 25.9574 89.9547 24.9858C89.6138 24.0057 89.0939 23.2259 88.3951 22.6463C87.6962 22.0668 86.8269 21.777 85.7871 21.777C84.7218 21.777 83.8354 22.0668 83.128 22.6463C82.4292 23.2259 81.905 24.0057 81.5556 24.9858C81.2147 25.9574 81.0442 27.044 81.0442 28.2457C81.0442 29.4389 81.2147 30.5213 81.5556 31.4929C81.905 32.4645 82.4292 33.2401 83.128 33.8196C83.8354 34.3906 84.7218 34.6761 85.7871 34.6761ZM101.307 45.3636C100.676 45.3636 100.093 45.3125 99.5556 45.2102C99.0272 45.1165 98.6053 45.0057 98.29 44.8778L99.3638 41.2727C100.037 41.4688 100.638 41.5625 101.166 41.554C101.695 41.5455 102.159 41.3793 102.56 41.0554C102.969 40.7401 103.314 40.2116 103.595 39.4702L103.992 38.4091L96.8709 18.3636H101.78L106.306 33.1932H106.51L111.048 18.3636H115.97L108.108 40.3778C107.742 41.4176 107.256 42.3082 106.651 43.0497C106.046 43.7997 105.304 44.3707 104.426 44.7628C103.557 45.1634 102.517 45.3636 101.307 45.3636ZM133.606 19.0156C133.487 17.8991 132.984 17.0298 132.097 16.4077C131.22 15.7855 130.078 15.4744 128.671 15.4744C127.683 15.4744 126.835 15.6236 126.127 15.9219C125.42 16.2202 124.879 16.625 124.504 17.1364C124.129 17.6477 123.937 18.2315 123.928 18.8878C123.928 19.4332 124.052 19.9062 124.299 20.3068C124.555 20.7074 124.9 21.0483 125.335 21.3295C125.769 21.6023 126.251 21.8324 126.779 22.0199C127.308 22.2074 127.84 22.3651 128.377 22.4929L130.832 23.1065C131.82 23.3366 132.771 23.6477 133.683 24.0398C134.603 24.4318 135.426 24.9261 136.15 25.5227C136.883 26.1193 137.463 26.8395 137.889 27.6832C138.315 28.527 138.528 29.5156 138.528 30.6491C138.528 32.1832 138.136 33.5341 137.352 34.7017C136.568 35.8608 135.434 36.7685 133.951 37.4247C132.477 38.0724 130.691 38.3963 128.595 38.3963C126.558 38.3963 124.789 38.081 123.289 37.4503C121.798 36.8196 120.63 35.8991 119.786 34.6889C118.951 33.4787 118.499 32.0043 118.431 30.2656H123.097C123.166 31.1776 123.447 31.9361 123.941 32.5412C124.436 33.1463 125.079 33.598 125.872 33.8963C126.673 34.1946 127.568 34.3438 128.556 34.3438C129.588 34.3438 130.491 34.1903 131.267 33.8835C132.051 33.5682 132.664 33.1335 133.107 32.5795C133.551 32.017 133.776 31.3608 133.785 30.6108C133.776 29.929 133.576 29.3665 133.184 28.9233C132.792 28.4716 132.242 28.0966 131.535 27.7983C130.836 27.4915 130.018 27.2187 129.08 26.9801L126.102 26.2131C123.945 25.6591 122.241 24.8196 120.988 23.6946C119.744 22.5611 119.122 21.0568 119.122 19.1818C119.122 17.6392 119.539 16.2884 120.374 15.1293C121.218 13.9702 122.365 13.071 123.813 12.4318C125.262 11.7841 126.903 11.4602 128.735 11.4602C130.593 11.4602 132.221 11.7841 133.619 12.4318C135.025 13.071 136.129 13.9616 136.93 15.1037C137.731 16.2372 138.144 17.5412 138.17 19.0156H133.606ZM151.117 38.3835C149.157 38.3835 147.474 37.9531 146.067 37.0923C144.67 36.2315 143.591 35.0426 142.833 33.5256C142.083 32 141.708 30.2443 141.708 28.2585C141.708 26.2642 142.091 24.5043 142.858 22.9787C143.626 21.4446 144.708 20.2514 146.106 19.3991C147.512 18.5384 149.174 18.108 151.091 18.108C152.685 18.108 154.096 18.402 155.323 18.9901C156.559 19.5696 157.543 20.392 158.276 21.4574C159.009 22.5142 159.427 23.75 159.529 25.1648H155.106C154.927 24.2187 154.501 23.4304 153.827 22.7997C153.162 22.1605 152.272 21.8409 151.155 21.8409C150.209 21.8409 149.378 22.0966 148.662 22.608C147.947 23.1108 147.388 23.8352 146.988 24.7812C146.596 25.7273 146.4 26.8608 146.4 28.1818C146.4 29.5199 146.596 30.6705 146.988 31.6335C147.38 32.5881 147.93 33.3253 148.637 33.8452C149.353 34.3565 150.192 34.6122 151.155 34.6122C151.837 34.6122 152.447 34.4844 152.983 34.2287C153.529 33.9645 153.985 33.5852 154.351 33.0909C154.718 32.5966 154.969 31.9957 155.106 31.2884H159.529C159.418 32.6776 159.009 33.9091 158.302 34.983C157.594 36.0483 156.631 36.8835 155.412 37.4886C154.194 38.0852 152.762 38.3835 151.117 38.3835ZM168.98 38.3963C167.735 38.3963 166.615 38.1747 165.617 37.7315C164.629 37.2798 163.845 36.6151 163.265 35.7372C162.694 34.8594 162.409 33.777 162.409 32.4901C162.409 31.3821 162.613 30.4659 163.022 29.7415C163.431 29.017 163.99 28.4375 164.697 28.0028C165.404 27.5682 166.201 27.2401 167.088 27.0185C167.982 26.7884 168.907 26.6222 169.862 26.5199C171.012 26.4006 171.945 26.294 172.661 26.2003C173.377 26.098 173.897 25.9446 174.221 25.7401C174.553 25.527 174.72 25.1989 174.72 24.7557V24.679C174.72 23.7159 174.434 22.9702 173.863 22.4418C173.292 21.9134 172.47 21.6491 171.396 21.6491C170.262 21.6491 169.363 21.8963 168.698 22.3906C168.042 22.8849 167.599 23.4687 167.369 24.142L163.048 23.5284C163.389 22.3352 163.951 21.3381 164.735 20.5369C165.519 19.7273 166.478 19.1222 167.612 18.7216C168.745 18.3125 169.998 18.108 171.37 18.108C172.316 18.108 173.258 18.2188 174.195 18.4403C175.133 18.6619 175.99 19.0284 176.765 19.5398C177.541 20.0426 178.163 20.7287 178.632 21.598C179.109 22.4673 179.347 23.554 179.347 24.858V38H174.899V35.3026H174.745C174.464 35.848 174.068 36.3594 173.556 36.8366C173.053 37.3054 172.419 37.6847 171.651 37.9744C170.893 38.2557 170.002 38.3963 168.98 38.3963ZM170.181 34.9957C171.11 34.9957 171.916 34.8125 172.597 34.446C173.279 34.071 173.803 33.5767 174.17 32.9631C174.545 32.3494 174.732 31.6804 174.732 30.956V28.642C174.588 28.7614 174.34 28.8722 173.991 28.9744C173.65 29.0767 173.267 29.1662 172.84 29.2429C172.414 29.3196 171.992 29.3878 171.575 29.4474C171.157 29.5071 170.795 29.5582 170.488 29.6009C169.798 29.6946 169.18 29.848 168.634 30.0611C168.089 30.2741 167.659 30.5724 167.343 30.956C167.028 31.331 166.87 31.8168 166.87 32.4134C166.87 33.2656 167.181 33.9091 167.803 34.3438C168.426 34.7784 169.218 34.9957 170.181 34.9957ZM188.629 26.4943V38H184.001V18.3636H188.424V21.7003H188.654C189.106 20.6009 189.826 19.7273 190.815 19.0795C191.812 18.4318 193.044 18.108 194.509 18.108C195.865 18.108 197.045 18.3977 198.051 18.9773C199.065 19.5568 199.849 20.3963 200.403 21.4957C200.965 22.5952 201.242 23.929 201.234 25.4972V38H196.606V26.2131C196.606 24.9006 196.265 23.8736 195.583 23.1321C194.91 22.3906 193.977 22.0199 192.784 22.0199C191.974 22.0199 191.254 22.1989 190.623 22.5568C190.001 22.9062 189.511 23.4134 189.153 24.0781C188.803 24.7429 188.629 25.5483 188.629 26.4943Z" fill="white"/>
<path opacity="0.2" d="M27.0585 27.6289C20.8241 17.2363 29.1366 6.8457 46.8026 7.88476C47.8514 25.5508 37.451 33.8652 27.0585 27.6289ZM3.17565 15.6758C2.43347 28.2949 9.85729 34.2305 17.2792 29.7793C21.7323 22.3574 15.7948 14.9336 3.17565 15.6758Z" fill="white"/>
<path d="M48.3652 7.79101C48.3429 7.40876 48.181 7.04801 47.9102 6.77725C47.6395 6.5065 47.2787 6.34459 46.8965 6.32226C36.7871 5.73633 28.6699 8.81054 25.1816 14.5684C22.8769 18.373 22.8808 22.998 25.1504 27.4082C23.86 28.9433 22.916 30.7387 22.3828 32.6719L19.2051 29.4922C20.7324 26.3027 20.6738 22.9766 19.0098 20.2168C16.4238 15.9629 10.4726 13.6719 3.08397 14.1152C2.70172 14.1376 2.34096 14.2995 2.07021 14.5702C1.79945 14.841 1.63754 15.2017 1.61522 15.584C1.17967 22.9727 3.46288 28.9238 7.71874 31.5019C9.12563 32.3607 10.7423 32.8142 12.3906 32.8125C13.9881 32.7928 15.5607 32.4144 16.9922 31.7051L21.875 36.5879V42.1875C21.875 42.6019 22.0396 42.9993 22.3326 43.2923C22.6257 43.5854 23.0231 43.75 23.4375 43.75C23.8519 43.75 24.2493 43.5854 24.5423 43.2923C24.8354 42.9993 25 42.6019 25 42.1875V36.4277C24.993 33.942 25.8389 31.5291 27.3965 29.5918C29.4061 30.642 31.635 31.2041 33.9023 31.2324C36.0945 31.2395 38.2459 30.6406 40.1191 29.5019C45.8769 26.0176 48.959 17.9004 48.3652 7.79101ZM16.8086 27.0977L12.041 22.332C11.7456 22.0514 11.3522 21.8972 10.9448 21.9024C10.5374 21.9076 10.1481 22.0718 9.85994 22.3599C9.57182 22.6481 9.40764 23.0374 9.40242 23.4448C9.39721 23.8522 9.55136 24.2456 9.83202 24.541L14.5996 29.3086C12.7226 29.9297 10.9023 29.7754 9.33788 28.8281C6.34178 27.0137 4.64647 22.7187 4.68749 17.1875C10.2168 17.1387 14.5137 18.8418 16.3281 21.8379C17.2754 23.4023 17.4297 25.2227 16.8086 27.0977ZM38.5 26.832C35.8828 28.416 32.8066 28.5371 29.6816 27.2227L40.168 16.7344C40.4611 16.4414 40.626 16.044 40.6261 15.6296C40.6263 15.2151 40.4619 14.8176 40.1689 14.5244C39.876 14.2312 39.4786 14.0664 39.0642 14.0662C38.6497 14.066 38.2522 14.2305 37.959 14.5234L27.4707 25C26.1504 21.875 26.2695 18.7969 27.8613 16.1816C30.584 11.6894 37.041 9.18945 45.3086 9.3789C45.4961 17.6445 42.9961 24.1094 38.5 26.832Z" fill="white"/>
</svg>
